<svg width="3048" height="842" viewBox="0 0 3048 842" fill="none" xmlns="http://www.w3.org/2000/svg">
<circle cx="421" cy="421" r="391" stroke="#0AAEDE" stroke-width="60"/>
<path d="M63 591.003C461 386 424.5 809 808.5 511" stroke="#0AAEDE" stroke-width="60"/>
<path d="M104 678.5C421.5 503.502 385.5 830.5 728.5 663.003" stroke="#0AAEDE" stroke-width="60"/>
<rect x="19" y="392" width="104" height="66" rx="33" fill="#0AAEDE"/>
<rect x="723" y="392" width="104" height="66" rx="33" fill="#0AAEDE"/>
<rect x="454" y="19" width="104" height="66" rx="33" transform="rotate(90 454 19)" fill="#0AAEDE"/>
<rect x="388" y="458" width="267" height="66" rx="33" transform="rotate(-90 388 458)" fill="#0AAEDE"/>
<rect x="412.812" y="382.254" width="224.492" height="66" rx="33" transform="rotate(30 412.812 382.254)" fill="#0AAEDE"/>
<path d="M1074.03 610V315.016H1008V253.32H1206.58V315.016H1140.07V610H1074.03ZM1230.7 610V342.49H1294.81V610H1230.7ZM1230.7 312.124V253.32H1294.81V312.124H1230.7ZM1346.98 610V342.49H1405.78V365.144H1406.74C1412.05 356.468 1430.36 333.332 1476.63 333.332C1491.09 333.332 1528.69 336.706 1553.75 375.266C1581.71 335.26 1621.23 333.332 1640.03 333.332C1692.57 333.332 1718.6 361.288 1728.24 374.784C1738.84 388.762 1748.48 414.308 1748.48 453.832V610H1684.38V461.544C1684.38 446.12 1684.38 392.136 1633.77 392.136C1615.93 392.136 1598.58 401.776 1589.42 417.2C1579.3 433.106 1579.78 459.616 1579.78 476.486V610H1515.68V461.544C1515.68 424.912 1501.7 392.136 1462.17 392.136C1411.08 392.136 1411.08 448.048 1411.08 476.486V610H1346.98ZM2064.4 504.924H1856.66C1859.55 522.276 1884.61 559.872 1930.4 559.872C1958.84 559.872 1980.05 547.822 1992.1 525.65H2059.58C2044.16 573.85 1993.55 618.676 1930.4 618.676C1848.95 618.676 1789.18 555.052 1789.18 476.968C1789.18 401.294 1845.09 333.332 1929.92 333.332C2017.65 333.332 2068.26 405.15 2068.26 472.63C2068.26 485.162 2066.33 496.248 2064.4 504.924ZM1854.73 453.35H2002.7C1995.47 410.452 1964.63 392.136 1930.4 392.136C1904.38 392.136 1866.78 403.704 1854.73 453.35ZM2151.47 610V315.016H2085.44V253.32H2284.02V315.016H2217.51V610H2151.47ZM2308.14 610V342.49H2372.25V610H2308.14ZM2308.14 312.124V253.32H2372.25V312.124H2308.14ZM2696.26 253.32V610H2637.46V577.224H2636.5C2624.45 596.504 2596.49 618.676 2551.18 618.676C2483.22 618.676 2414.78 562.764 2414.78 476.486C2414.78 386.352 2487.08 333.332 2551.18 333.332C2590.22 333.332 2613.36 346.346 2632.16 366.108V253.32H2696.26ZM2478.88 474.076C2478.88 523.722 2516 559.872 2557.93 559.872C2606.13 559.872 2636.98 516.492 2636.98 476.004C2636.98 432.142 2603.24 392.136 2557.93 392.136C2510.21 392.136 2478.88 436.48 2478.88 474.076ZM3006.75 504.924H2799.01C2801.9 522.276 2826.96 559.872 2872.75 559.872C2901.19 559.872 2922.4 547.822 2934.45 525.65H3001.93C2986.5 573.85 2935.89 618.676 2872.75 618.676C2791.29 618.676 2731.53 555.052 2731.53 476.968C2731.53 401.294 2787.44 333.332 2872.27 333.332C2959.99 333.332 3010.6 405.15 3010.6 472.63C3010.6 485.162 3008.68 496.248 3006.75 504.924ZM2797.08 453.35H2945.05C2937.82 410.452 2906.97 392.136 2872.75 392.136C2846.72 392.136 2809.13 403.704 2797.08 453.35Z" fill="#11305C"/>
</svg>
